<svg version="1.2" xmlns="http://www.w3.org/2000/svg" viewBox="297.00000000000006 7.999999999999986 714.0000000000002 483" width="715" height="484">
	<title>logo</title>
	<style>
		.s0 { fill: #0055a4 } 
		.s1 { fill: #e74c3c } 
		.s2 { fill: #000000 } 
	</style>
	<g id="Layer 1">
		<g id="Layer 1">
			<path class="s0" d="m529.9 121.7c53.3-2.7 149.4 12.1 198.6 32.6 13.3 5.6 25.8 13.1 38.8 19.4 19.9 9.4 40.4 17.6 61.4 24.3q25.1 8.2 50.8 14.7c32.3 8.3 64.7 15.1 90.5 38 19.6 17.2 31.5 41.4 33 67.4 0.7 11 2.4 28.8-5.7 37.5-2.9 3.1-8.8 4.7-13 5.3-12 1.9-25.1 0.9-37.2 1.1q-24.3 0.4-48.7 1.4c4.7-14.2 4.4-28.3 1.7-42.7q-0.6-1.9-1.2-3.8c-6.1-18.2-19.2-33.1-36.4-41.7-17.2-8.6-37.2-9.8-55.3-3.4-17.9 6.1-32.6 19.1-40.9 36-8.2 17.2-9.2 36.9-2.9 54.8h-117.7c-10.3-9.2-19.6-20.1-28.9-30.3-55.4-60.5-105.7-131.4-138.5-206.7 16.9-2.6 34.5-3.3 51.6-3.9z"/>
			<path class="s1" d="m439.6 14.8c11.8-1.3 24.5 0.5 35.1 5.9-8.8-0.7-17.6-1.6-25.6 3-6.5 3.7-10.6 10.2-12.5 17.3-11.1 40.9 27.3 115.3 47.1 149.9 47.7 83.3 121.5 175.3 198.7 232.4 19.5 14.5 41.9 29.3 65.7 35.7 10.2 2.7 22.6 4 32.1-1.6 10.4-6.1 12.1-17.2 15-27.9 1.8 14-0.4 32.1-8.8 43.9-5.4 7.5-13.3 12.3-22.4 13.7-34.3 5.5-78.4-24.9-104.9-44.1-32.2-24.3-60.4-52.3-88.4-81.2-18.9 0.3-37.8 0-56.6 0.2 4.3-16 5.6-31.1 0-47.1-6.2-17.7-18.2-31.9-35.2-40.1-17.1-8.4-37-9.5-55-3.1-17.9 6.4-32.5 19.6-40.6 36.9-7.3 15.5-9.2 34.7-3.3 51.1-13.5-5.8-27.7-9.8-41.1-15.7-13.3-5.9-23.4-13.5-28.7-27.4-6-15.7-5.9-33.9-5.7-50.5 0.7-45.5 5.9-56.3 37.4-89.1 9.5-9.9 16.7-19.2 22.3-31.7 19.4-3.9 39.8-8.4 59.4-10.3-6.7-15.8-11.7-33.7-14.6-50.6-3-18.1-4.4-40.3 6.9-55.9 5.9-8.3 13.9-12.1 23.7-13.7z"/>
			<path class="s2" d="m824.6 282.5c31.2-4.1 59.9 17.9 63.9 49.2 3.9 31.3-18.4 59.8-49.7 63.5-30.9 3.7-59.1-18.3-63-49.3-3.9-30.9 17.9-59.2 48.8-63.4z"/>
			<path class="s2" d="m440.5 282.6c31-3.6 59.1 18.5 62.9 49.5 3.8 31-18.2 59.2-49.1 63.1-31.2 4-59.7-18.1-63.5-49.3-3.8-31.3 18.5-59.6 49.7-63.3z"/>
			<path class="s0" d="m473.6 44.8c40.6-3.1 81.9 38.7 111.2 62.7-11.2-2.5-22.5-2.7-33.9-3.2-17.9-14.5-45.6-37.3-69-40.5-5.1-0.7-10.3-0.2-14.5 3.1-6.3 4.9-6.2 12.7-7.2 19.9-1.6-9.8-2.7-21.8 1.4-31 2.5-5.7 6.4-8.9 12-11z"/>
			<path class="s0" d="m750.3 379.9q10-0.1 19.9 0.1c2 6.8 2.6 14.6 2.7 21.7 0.2 7.5-0.9 15.6-6.5 21.2-4.8 4.9-10 5.7-16.5 5.7-7.9-0.2-15.3-3.1-22.6-5.5 4.4-0.2 9.6 1 14 0.1 3.8-0.7 7-3 9.1-6.2 6.6-10.4 2.2-26-0.1-37.1z"/>
		</g>
		<path id="SERVICES AUTO78" class="s1" d="m321.8 563.8q-7.6 0-12.8-2.2-5-2.2-7.6-5.8-2.6-3.5-2.8-7.6 0-0.6 0.5-1.1 0.5-0.5 1.2-0.5h8.4q1 0 1.6 0.4 0.6 0.4 1 1.1 0.6 1.3 1.8 2.6 1.2 1.2 3.4 2.1 2.1 0.8 5.3 0.8 5.1 0 7.6-1.7 2.6-1.6 2.6-4.5 0-2-1.4-3.3-1.3-1.2-4.3-2.3-3-1-7.9-2.2-5.9-1.2-10.1-3.2-4.1-2.1-6.2-5.2-2.1-3.3-2.1-8 0-4.8 2.6-8.4 2.6-3.7 7.4-5.8 4.7-2.1 11.3-2.1 5.3 0 9.3 1.4 4.1 1.5 6.8 3.7 2.8 2.3 4.2 4.9 1.4 2.6 1.5 5.1 0 0.6-0.5 1.2-0.5 0.5-1.2 0.5h-8.8q-0.8 0-1.4-0.4-0.7-0.3-1.1-1.1-0.4-2-2.8-3.5-2.3-1.6-6-1.6-3.9 0-6.2 1.4-2.2 1.4-2.2 4.4 0 1.9 1.1 3.2 1.2 1.3 3.9 2.3 2.7 0.9 7.3 2.1 6.9 1.5 11.2 3.4 4.4 2 6.4 5.2 2.1 3 2.1 7.8 0 5.3-3 9.1-2.9 3.8-8.1 5.8-5.2 2-12 2zm70.4-0.8h-36.4q-0.8 0-1.4-0.6-0.6-0.5-0.6-1.4v-51.3q0-0.9 0.6-1.4 0.6-0.6 1.4-0.6h35.8q0.9 0 1.4 0.6 0.6 0.5 0.6 1.4v6.3q0 0.8-0.6 1.3-0.5 0.6-1.4 0.6h-25.6v12.4h23.9q0.8 0 1.4 0.5 0.5 0.6 0.5 1.5v5.8q0 0.8-0.5 1.4-0.6 0.5-1.4 0.5h-23.9v12.8h26.2q0.9 0 1.5 0.6 0.5 0.5 0.5 1.4v6.2q0 0.9-0.5 1.4-0.6 0.6-1.5 0.6zm21.2 0h-8.6q-0.8 0-1.4-0.6-0.6-0.5-0.6-1.4v-51.3q0-0.9 0.6-1.4 0.6-0.6 1.4-0.6h21q9.8 0 15.5 4.6 5.7 4.5 5.7 13 0 5.8-2.8 9.7-2.7 3.8-7.4 5.7l11.2 19.8q0.2 0.4 0.2 0.8 0 0.7-0.5 1.2-0.5 0.5-1.2 0.5h-8.7q-1.5 0-2.2-0.7-0.7-0.8-1-1.4l-9.6-18.1h-9.6v18.2q0 0.9-0.5 1.4-0.6 0.6-1.5 0.6zm2-45.4v15.1h10.1q4.4 0 6.4-1.9 2.2-2 2.2-5.6 0-3.5-2.1-5.6-2.1-2-6.5-2zm65.8 45.4h-10.4q-1.2 0-2-0.6-0.7-0.7-1.1-1.7l-16.6-50.6q0-0.4 0-0.7 0-0.7 0.4-1.1 0.5-0.6 1.2-0.6h8.3q1.2 0 1.8 0.7 0.7 0.6 0.9 1.2l12.3 38.6 12.3-38.6q0.2-0.6 0.8-1.2 0.7-0.7 1.9-0.7h8.3q0.7 0 1.1 0.6 0.5 0.4 0.5 1.1 0 0.3-0.1 0.7l-16.6 50.6q-0.2 1-1 1.7-0.7 0.6-2 0.6zm38.6 0h-9q-0.8 0-1.4-0.6-0.5-0.5-0.5-1.4v-51.3q0-0.9 0.5-1.4 0.6-0.6 1.4-0.6h9q0.8 0 1.4 0.6 0.5 0.5 0.5 1.4v51.3q0 0.9-0.5 1.4-0.6 0.6-1.4 0.6zm36 0.8q-7.4 0-12.6-2.5-5.2-2.5-8-7.2-2.8-4.8-3.2-11.7 0-3.3 0-7 0-3.7 0-7.1 0.4-6.8 3.2-11.5 2.9-4.8 8.1-7.4 5.3-2.5 12.5-2.5 5.3 0 9.7 1.4 4.3 1.3 7.5 3.8 3.1 2.6 4.9 5.9 1.7 3.4 1.9 7.6 0 0.7-0.6 1.2-0.5 0.5-1.2 0.5h-9q-0.9 0-1.5-0.5-0.5-0.5-0.9-1.6-1.1-4.6-3.9-6.4-2.8-1.7-6.9-1.7-4.9 0-7.7 2.7-2.9 2.7-3.1 8.9-0.2 6.5 0 13.3 0.2 6.2 3.1 8.9 2.8 2.7 7.7 2.7 4.1 0 6.9-1.7 2.8-1.9 3.9-6.4 0.4-1.2 0.9-1.6 0.6-0.5 1.5-0.5h9q0.7 0 1.2 0.5 0.6 0.5 0.6 1.2-0.2 4.2-1.9 7.6-1.8 3.3-4.9 5.9-3.2 2.5-7.5 3.8-4.4 1.4-9.7 1.4zm71.5-0.8h-36.5q-0.8 0-1.4-0.6-0.5-0.5-0.5-1.4v-51.3q0-0.9 0.5-1.4 0.6-0.6 1.4-0.6h35.8q0.9 0 1.4 0.6 0.6 0.5 0.6 1.4v6.3q0 0.8-0.6 1.3-0.5 0.6-1.4 0.6h-25.6v12.4h23.9q0.9 0 1.4 0.5 0.6 0.6 0.6 1.5v5.8q0 0.8-0.6 1.4-0.5 0.5-1.4 0.5h-23.9v12.8h26.3q0.8 0 1.4 0.6 0.5 0.5 0.5 1.4v6.2q0 0.9-0.5 1.4-0.6 0.6-1.4 0.6zm30.5 0.8q-7.6 0-12.8-2.2-5-2.2-7.6-5.8-2.6-3.5-2.8-7.6 0-0.6 0.5-1.1 0.5-0.5 1.2-0.5h8.4q1.1 0 1.6 0.4 0.6 0.4 1 1.1 0.6 1.3 1.8 2.6 1.2 1.2 3.4 2.1 2.1 0.8 5.3 0.8 5.1 0 7.6-1.7 2.6-1.6 2.6-4.5 0-2-1.4-3.3-1.3-1.2-4.3-2.3-3-1-7.9-2.2-5.9-1.2-10.1-3.2-4.1-2.1-6.2-5.2-2.1-3.3-2.1-8 0-4.8 2.6-8.4 2.7-3.7 7.4-5.8 4.7-2.1 11.3-2.1 5.3 0 9.3 1.4 4.1 1.5 6.8 3.7 2.8 2.3 4.2 4.9 1.4 2.6 1.5 5.1 0 0.6-0.5 1.2-0.5 0.5-1.2 0.5h-8.8q-0.8 0-1.4-0.4-0.7-0.3-1.1-1.1-0.4-2-2.8-3.5-2.3-1.6-6-1.6-3.9 0-6.2 1.4-2.2 1.4-2.2 4.4 0 1.9 1.1 3.2 1.2 1.3 3.9 2.3 2.8 0.9 7.3 2.1 6.9 1.5 11.3 3.4 4.3 2 6.4 5.2 2 3 2 7.8 0 5.3-3 9.1-2.9 3.8-8.1 5.8-5.2 2-12 2z"/>
		<path id="SERVICES AUTO78" class="s0" d="m709.8 563h-8.2q-0.7 0-1.2-0.5-0.5-0.5-0.5-1.2 0-0.4 0.1-0.7l18.8-50.8q0.3-0.8 1-1.5 0.7-0.6 2-0.6h10.1q1.2 0 1.9 0.6 0.7 0.7 1 1.5l18.8 50.8q0.1 0.3 0.1 0.7 0 0.7-0.5 1.2-0.5 0.5-1.2 0.5h-8.2q-1.2 0-1.7-0.6-0.6-0.5-0.8-1l-3.4-8.8h-22.2l-3.4 8.8q-0.2 0.5-0.7 1-0.6 0.6-1.8 0.6zm17-43.4l-8.2 22.8h16.3zm55.7 44.1q-7 0-12.2-2.2-5.2-2.4-8-7.2-2.9-4.9-2.9-12.4v-32.3q0-0.8 0.6-1.4 0.5-0.5 1.4-0.5h8.6q0.9 0 1.4 0.5 0.6 0.6 0.6 1.4v32.2q0 5.8 2.7 8.7 2.8 2.8 7.8 2.8 4.9 0 7.6-2.8 2.8-2.9 2.8-8.7v-32.2q0-0.8 0.6-1.4 0.6-0.5 1.4-0.5h8.7q0.8 0 1.3 0.5 0.6 0.6 0.6 1.4v32.3q0 7.5-2.9 12.4-2.8 4.8-8 7.2-5.1 2.2-12.1 2.2zm57.3-0.7h-8.8q-0.8 0-1.4-0.6-0.6-0.6-0.6-1.4v-42.4h-14.3q-0.8 0-1.4-0.5-0.5-0.6-0.5-1.4v-7.1q0-0.8 0.5-1.4 0.6-0.5 1.4-0.5h41.4q0.8 0 1.4 0.5 0.5 0.6 0.5 1.4v7.1q0 0.8-0.5 1.4-0.6 0.5-1.4 0.5h-14.3v42.4q0 0.8-0.6 1.4-0.5 0.6-1.4 0.6zm46 0.7q-7.1 0-12.4-2.3-5.2-2.4-8.1-7.1-2.9-4.9-3.2-12.1 0-3.4 0-6.7 0-3.4 0-6.9 0.3-7.1 3.2-11.9 3-4.9 8.2-7.4 5.3-2.4 12.3-2.4 7 0 12.2 2.4 5.3 2.5 8.3 7.4 3 4.8 3.2 11.9 0.1 3.5 0.1 6.9 0 3.3-0.1 6.7-0.3 7.2-3.2 12.1-2.9 4.7-8.1 7.1-5.2 2.3-12.4 2.3zm0-10.1q4.6 0 7.5-2.8 3.1-2.9 3.2-9 0.2-3.5 0.2-6.5 0-3.1-0.2-6.5-0.1-4.1-1.5-6.7-1.4-2.6-3.8-3.8-2.3-1.2-5.4-1.2-3 0-5.4 1.2-2.4 1.2-3.8 3.8-1.3 2.6-1.5 6.7-0.1 3.4-0.1 6.5 0 3 0.1 6.5 0.2 6.1 3.2 9 2.9 2.8 7.5 2.8zm48.1 9.4h-8.6q-0.7 0-1.2-0.5-0.4-0.6-0.4-1.3 0-0.3 0.1-0.7l18.7-42.3h-24.3q-0.8 0-1.4-0.5-0.6-0.6-0.6-1.4v-6.7q0-0.8 0.6-1.4 0.6-0.5 1.4-0.5h35.8q1 0 1.4 0.5 0.6 0.6 0.6 1.4v6q0 1.1-0.3 1.9-0.1 0.7-0.5 1.5l-18.6 42.1q-0.2 0.4-0.8 1.1-0.6 0.8-1.9 0.8zm50.4 0.7q-5.5 0-9.8-1.2-4.1-1.4-7-3.7-2.8-2.3-4.2-5.4-1.5-3.2-1.5-6.9 0-4.5 2.2-7.8 2.3-3.3 5.7-5.1-2.8-1.9-4.4-4.6-1.5-2.9-1.5-6.6 0-4.5 2.3-8 2.3-3.4 6.8-5.5 4.6-2 11.4-2 6.8 0 11.3 2 4.5 2 6.8 5.5 2.3 3.4 2.3 7.9 0 3.8-1.5 6.6-1.5 2.8-4.2 4.7 3.6 1.7 5.7 5.1 2.2 3.4 2.2 7.9 0 4.9-2.6 8.8-2.5 3.8-7.6 6.1-5 2.2-12.4 2.2zm0-9q2.8 0 5.1-1 2.3-1 3.6-2.8 1.3-1.9 1.3-4.3 0-2.5-1.3-4.3-1.3-1.8-3.6-2.7-2.3-1.1-5.1-1.1-2.8 0-5.1 1.1-2.2 0.9-3.5 2.7-1.4 1.8-1.4 4.3 0 2.4 1.4 4.3 1.3 1.8 3.5 2.8 2.3 1 5.1 1zm0-24.8q2.5 0 4.5-0.9 1.9-0.9 3.1-2.4 1.2-1.6 1.2-3.6 0-2.2-1.2-3.7-1.1-1.5-3.1-2.4-1.9-0.9-4.5-0.9-2.5 0-4.5 0.9-2 0.9-3.1 2.4-1.1 1.5-1.1 3.7 0 2.1 1.1 3.7 1.1 1.5 3.1 2.4 2 0.8 4.5 0.8z"/>
	</g>
</svg>